<?xml version="1.0" encoding="UTF-8" standalone="no"?>
<!-- Created with Inkscape (http://www.inkscape.org/) -->

<svg
   width="209.73721mm"
   height="209.74136mm"
   viewBox="0 0 209.73721 209.74136"
   version="1.1"
   id="svg1"
   xml:space="preserve"
   xmlns:inkscape="http://www.inkscape.org/namespaces/inkscape"
   xmlns:sodipodi="http://sodipodi.sourceforge.net/DTD/sodipodi-0.dtd"
   xmlns="http://www.w3.org/2000/svg"
   xmlns:svg="http://www.w3.org/2000/svg"><sodipodi:namedview
     id="namedview1"
     pagecolor="#ffffff"
     bordercolor="#000000"
     borderopacity="0.25"
     inkscape:showpageshadow="2"
     inkscape:pageopacity="0.0"
     inkscape:pagecheckerboard="0"
     inkscape:deskcolor="#d1d1d1"
     inkscape:document-units="mm"
     showguides="true"
     inkscape:export-bgcolor="#c6e9af1c"><inkscape:page
       x="0"
       y="0"
       width="209.73721"
       height="209.74136"
       id="page2"
       margin="0"
       bleed="0" /></sodipodi:namedview><defs
     id="defs1"><linearGradient
       id="swatch81"
       inkscape:swatch="solid"><stop
         style="stop-color:#0c0a07;stop-opacity:1;"
         offset="0"
         id="stop81" /></linearGradient><linearGradient
       id="swatch1"
       inkscape:swatch="solid"><stop
         style="stop-color:#9bb48a;stop-opacity:1;"
         offset="0"
         id="stop1" /></linearGradient></defs><g
     inkscape:groupmode="layer"
     id="g67"
     inkscape:label="Ebene 2"
     style="display:inline;fill:#838383;fill-opacity:0.725;fill-rule:evenodd"
     transform="translate(0.13229129,-44.283402)"><rect
       style="display:inline;fill:#c6e9af;fill-opacity:0.725;fill-rule:evenodd;stroke:#020202;stroke-width:0.222327;stroke-opacity:0.982143"
       id="rect67"
       width="209.51491"
       height="209.51903"
       x="-0.021127786"
       y="44.394562"
       inkscape:export-filename="rect67.svg"
       inkscape:export-xdpi="120.95"
       inkscape:export-ydpi="120.95" /></g><g
     id="path67"
     transform="translate(0.13229129,-44.283402)"><path
       style="fill:#292929"
       d="m 123.15372,99.572217 c -0.38317,0.0015 -0.79242,0.103751 -1.50585,0.307991 -2.08279,0.596242 -9.21367,3.111602 -66.077619,23.306592 -3.044366,1.0812 -5.753037,1.96577 -6.01927,1.96577 -0.46074,0 -0.484209,-0.49654 -0.484209,-10.3017 0,-6.05306 -0.106247,-10.58143 -0.257865,-10.98021 -0.280672,-0.73823 -1.384163,-0.95418 -1.776636,-0.34778 -0.117729,0.1819 -0.273989,5.39089 -0.346749,11.57552 l -0.132291,11.24479 -4.233334,1.52187 c -14.010142,5.03743 -13.940713,5.00399 -14.307137,6.9572 -0.363874,1.93961 1.270447,4.08864 3.109371,4.08864 0.817348,0 3.478262,-0.8424 10.746114,-3.40186 3.505169,-1.23441 4.606825,-1.52738 4.711858,-1.25367 0.0754,0.1965 0.100373,0.9351 0.05529,1.64176 l -0.08217,1.28519 -3.175,1.20923 c -4.214892,1.60535 -4.415395,1.72461 -4.314982,2.56109 0.156908,1.30712 0.727187,1.34086 4.069519,0.24081 1.848425,-0.60836 3.172445,-0.91672 3.31711,-0.77205 0.139908,0.1399 0.212022,5.55546 0.172082,12.92531 l -0.06873,12.68398 -3.335197,0.13436 c -3.568509,0.14401 -4.205428,0.36787 -4.205428,1.4764 0,0.95623 0.761288,1.16737 4.204394,1.16737 h 3.180168 l 0.173116,0.92397 c 0.329703,1.75747 0.695103,1.67824 -8.14989,1.77044 -7.139009,0.0744 -8.110029,0.13548 -8.742619,0.55035 -1.560431,1.02338 -2.137532,2.92833 -1.374076,4.53719 0.850742,1.79281 1.142831,1.85052 10.17974,2.0035 l 8.069792,0.13642 0.07441,3.55431 c 0.04315,2.06818 0.195149,3.7 0.363285,3.9026 0.158928,0.19149 0.557051,0.3483 0.885217,0.3483 1.015194,0 1.1714,-0.53094 1.24902,-4.2509 l 0.0739,-3.55431 63.764586,-0.13229 c 59.4082,-0.12325 63.82084,-0.16315 64.58727,-0.58291 1.62092,-0.88774 1.97214,0.21264 1.55856,-27.62105 l -0.38861,-26.15293 c -0.007,-0.4532 -0.97835,-1.02537 -1.69912,-1.39061 -3.29673,-1.67058 -50.45579,-22.30678 -52.51876,-22.981544 -0.60905,-0.19919 -0.9661,-0.298602 -1.34927,-0.297139 z m -0.078,7.324103 c 0.37749,0 6.81204,2.78932 28.38483,12.30467 3.71078,1.63675 9.78297,4.30703 13.49375,5.93401 3.71078,1.62699 6.8964,3.15363 7.07916,3.39256 0.26158,0.34201 0.31788,4.94022 0.26458,21.6147 l -0.0677,21.1801 -61.45723,0.0667 c -54.600299,0.0593 -61.47505,0.0221 -61.611223,-0.33279 -0.0843,-0.21969 -0.07519,-0.81521 0.02015,-1.32344 l 0.173633,-0.92397 h 59.08994 l 59.45322,-0.4377 -0.016,-38.56716 c -3e-4,-0.73061 -1.63624,-1.09748 -12.45351,-5.70404 -23.62799,-10.06204 -31.93425,-13.54941 -32.58095,-13.67875 -0.63752,-0.12751 -12.29962,3.91204 -36.872177,12.77234 -18.271903,6.58842 -36.532853,13.00856 -36.702669,12.90361 -0.113611,-0.0702 -0.206706,-0.77139 -0.206706,-1.55805 0,-1.09172 0.1096,-1.48895 0.463021,-1.67741 0.254661,-0.13581 6.356614,-2.33251 13.559896,-4.88187 7.203281,-2.54935 18.692813,-6.62093 25.532292,-9.04751 26.156073,-9.27993 34.046023,-12.03596 34.453713,-12.03596 z"
       id="path82" /><path
       style="fill:#020202;fill-opacity:0.982143"
       d="m 123.15234,99.072266 c -0.47072,0.0018 -0.92295,0.122113 -1.64257,0.328125 -2.1502,0.615539 -9.24339,3.119429 -66.107426,23.314449 -1.518637,0.53934 -2.953776,1.03034 -4.039063,1.38477 -0.542643,0.17721 -0.99723,0.32052 -1.328125,0.41797 -0.124466,0.0367 -0.21144,0.0593 -0.296875,0.082 -0.0317,-0.14448 -0.07704,-0.38229 -0.103515,-0.94531 -0.06213,-1.32142 -0.06836,-3.90056 -0.06836,-8.80274 0,-3.02945 -0.02661,-5.67836 -0.07227,-7.62304 -0.02283,-0.97234 -0.05026,-1.76737 -0.08203,-2.35157 -0.01589,-0.2921 -0.03208,-0.53212 -0.05078,-0.71875 -0.0187,-0.18662 -0.01458,-0.27715 -0.08594,-0.46484 -0.211935,-0.55744 -0.707299,-0.89246 -1.216797,-0.99219 -0.509498,-0.0997 -1.118225,0.0454 -1.445313,0.55078 -0.07418,0.11462 -0.06888,0.1457 -0.07813,0.1836 -0.0092,0.0379 -0.01435,0.0698 -0.01953,0.10351 -0.01036,0.0674 -0.01897,0.1426 -0.02734,0.23438 -0.01674,0.18356 -0.03247,0.42952 -0.04883,0.73828 -0.03271,0.61751 -0.06615,1.48194 -0.09766,2.5332 -0.06301,2.10253 -0.11984,4.952 -0.15625,8.04688 l -0.128906,10.89843 -3.90625,1.4043 c -7.004987,2.51869 -10.478186,3.76138 -12.31836,4.65625 -0.920086,0.44744 -1.458173,0.81551 -1.798828,1.26758 -0.340655,0.45207 -0.420593,0.92636 -0.511719,1.41211 -0.213121,1.13603 0.153927,2.28719 0.822266,3.16601 0.668339,0.87883 1.665062,1.51368 2.779297,1.51368 0.580449,0 1.41649,-0.22961 3.103515,-0.76368 1.687026,-0.53406 4.172846,-1.38564 7.808594,-2.66601 1.748794,-0.61587 2.89634,-0.99467 3.591797,-1.17969 0.256061,-0.0681 0.381088,-0.0832 0.507813,-0.10156 0.01185,0.0895 0.01351,0.0825 0.01758,0.20312 0.0094,0.2783 0.0058,0.62646 -0.01563,0.96289 l -0.0625,0.96485 -2.873047,1.09375 c -2.10883,0.8032 -3.204933,1.22243 -3.853516,1.60742 -0.324291,0.1925 -0.56783,0.39888 -0.699219,0.68555 -0.131388,0.28667 -0.109648,0.56485 -0.08203,0.79492 0.04347,0.36211 0.111182,0.69345 0.330078,0.98437 0.218897,0.29093 0.593824,0.45587 0.976563,0.47852 0.765477,0.0453 1.735386,-0.2535 3.416015,-0.80664 0.914367,-0.30094 1.697415,-0.52671 2.253907,-0.65625 0.20343,-0.0474 0.334327,-0.0673 0.466797,-0.0879 0.01078,0.15412 0.02142,0.31591 0.03125,0.56054 0.02548,0.63421 0.04727,1.55152 0.0625,2.69532 0.03046,2.28759 0.03753,5.48143 0.01758,9.16406 l -0.06445,12.20703 -2.859375,0.11524 c -1.793487,0.0724 -2.852426,0.14674 -3.585938,0.40429 -0.366756,0.12878 -0.674306,0.3299 -0.863281,0.62305 -0.188975,0.29315 -0.236328,0.62225 -0.236328,0.94726 0,0.30541 0.07083,0.6382 0.285156,0.90235 0.21433,0.26415 0.52481,0.42134 0.892578,0.52344 0.735536,0.20419 1.79557,0.24218 3.527344,0.24218 h 2.765625 l 0.0957,0.51563 c 0.08564,0.45649 0.123569,0.76197 0.115234,0.79687 -0.0042,0.0175 0.0217,-0.0137 -0.01172,0.01 -0.03342,0.0234 -0.144844,0.0781 -0.351563,0.12305 -0.826874,0.17964 -2.990145,0.20388 -7.414062,0.25 -3.570694,0.0372 -5.598101,0.0704 -6.837891,0.14843 -1.23979,0.078 -1.768838,0.21682 -2.173828,0.48243 -1.751094,1.14842 -2.423564,3.33478 -1.552735,5.16992 0.216991,0.45727 0.423656,0.86851 0.796875,1.20508 0.37322,0.33656 0.87476,0.54905 1.578125,0.6875 1.406732,0.27689 3.72862,0.31997 8.248047,0.39648 l 7.587891,0.12891 0.06445,3.07226 c 0.02177,1.04359 0.07066,1.97794 0.136719,2.6875 0.03303,0.35478 0.07048,0.65145 0.113281,0.88867 0.0214,0.11862 0.04353,0.22219 0.07227,0.31836 0.02873,0.0962 0.04173,0.18037 0.15625,0.31836 0.335332,0.40404 0.784039,0.52735 1.271484,0.52735 0.297381,0 0.611676,-0.0355 0.892578,-0.22657 0.280902,-0.19108 0.456304,-0.49995 0.5625,-0.86132 0.212393,-0.72275 0.254023,-1.78587 0.292969,-3.65235 l 0.06445,-3.06445 63.275382,-0.13281 c 29.70419,-0.0616 45.65814,-0.1018 54.28711,-0.17969 4.31449,-0.0389 6.79573,-0.087 8.25977,-0.15235 1.46405,-0.0653 1.91333,-0.11206 2.2793,-0.3125 0.36038,-0.19737 0.85363,-0.38202 1.18164,-0.9707 0.32801,-0.58868 0.49799,-1.45439 0.61914,-3.13672 0.24229,-3.36465 0.22439,-10.04013 0.0176,-23.95898 l -0.38867,-26.15234 c -0.004,-0.29023 -0.13972,-0.50095 -0.2832,-0.67188 -0.14348,-0.17093 -0.31505,-0.31575 -0.50195,-0.45312 -0.37381,-0.27475 -0.814,-0.51581 -1.1875,-0.70508 -0.88269,-0.4473 -4.41194,-2.03032 -9.33008,-4.21094 -4.91814,-2.18062 -11.18752,-4.9377 -17.41797,-7.66406 -6.23045,-2.72637 -12.42153,-5.42235 -17.18555,-7.47852 -2.382,-1.02808 -4.40702,-1.89636 -5.90234,-2.5293 -1.49532,-0.63293 -2.40567,-1.013045 -2.75391,-1.126949 -0.61721,-0.201858 -1.03502,-0.324063 -1.50586,-0.322265 z m 0.004,1.000004 c 0.2955,-0.001 0.59051,0.075 1.19141,0.27148 0.1675,0.0548 1.18239,0.46832 2.67382,1.09961 1.49144,0.63129 3.51572,1.49784 5.89649,2.52539 4.76154,2.0551 10.95236,4.75071 17.18164,7.47656 6.22928,2.72585 12.49625,5.48251 17.41211,7.66211 4.91585,2.17961 8.51753,3.80146 9.2832,4.18946 0.34727,0.17597 0.75502,0.40319 1.04883,0.61914 0.1469,0.10797 0.26303,0.21383 0.32617,0.28906 0.0632,0.0752 0.0518,0.10854 0.0508,0.0449 l 0.38867,26.15234 c 0.20677,13.91484 0.21953,20.60559 -0.0156,23.8711 -0.11758,1.63275 -0.31334,2.39818 -0.49414,2.72265 -0.1808,0.32448 -0.33899,0.33359 -0.78906,0.58008 -0.0173,0.009 -0.40641,0.12735 -1.8418,0.19141 -1.43539,0.064 -3.91411,0.11148 -8.22461,0.15039 -8.621,0.0778 -24.57724,0.11806 -54.28125,0.17969 l -64.253906,0.13476 -0.08398,4.04297 c -0.03867,1.85348 -0.113039,2.91596 -0.251953,3.38867 -0.06946,0.23636 -0.12968,0.29169 -0.166016,0.31641 -0.03634,0.0247 -0.119862,0.0547 -0.330078,0.0547 -0.159614,0 -0.454645,-0.15552 -0.474609,-0.15625 -0.01158,-0.0422 -0.02593,-0.1 -0.04102,-0.1836 -0.03434,-0.19035 -0.07018,-0.46962 -0.101562,-0.80664 -0.06276,-0.67404 -0.111436,-1.58869 -0.132813,-2.61328 l -0.08398,-4.03711 -8.550782,-0.14453 c -4.517481,-0.0765 -6.861039,-0.13854 -8.072265,-0.37695 -0.605613,-0.11921 -0.900294,-0.26596 -1.103516,-0.44922 -0.203221,-0.18327 -0.352166,-0.4515 -0.560547,-0.89063 -0.656082,-1.38258 -0.174455,-3.00596 1.195313,-3.90429 0.2276,-0.14927 0.500834,-0.24745 1.689453,-0.32227 1.188619,-0.0748 3.216841,-0.1093 6.785156,-0.14648 4.421076,-0.0461 6.495986,-0.0303 7.615235,-0.27344 0.279812,-0.0608 0.512324,-0.13717 0.714843,-0.2793 0.20252,-0.14213 0.356742,-0.37395 0.410157,-0.59765 0.106829,-0.44741 -0.0243,-0.79065 -0.103516,-1.2129 l -0.25,-1.33203 h -3.595703 c -1.711333,0 -2.753881,-0.0666 -3.259766,-0.20703 -0.252942,-0.0702 -0.346804,-0.14507 -0.382812,-0.18945 -0.03601,-0.0444 -0.0625,-0.0988 -0.0625,-0.27149 0,-0.22925 0.03421,-0.34115 0.07617,-0.40625 0.04196,-0.0651 0.116931,-0.13694 0.355468,-0.2207 0.477075,-0.16751 1.5199,-0.27798 3.294922,-0.34961 l 3.8125,-0.15234 0.07031,-13.16211 c 0.01998,-3.68722 0.01301,-6.88597 -0.01758,-9.18359 -0.0153,-1.14882 -0.03636,-2.0718 -0.0625,-2.72266 -0.01307,-0.32543 -0.02642,-0.5811 -0.04297,-0.77149 -0.0083,-0.0952 -0.0172,-0.17364 -0.0293,-0.24609 -0.006,-0.0362 -0.01211,-0.0695 -0.02539,-0.11523 -0.01329,-0.0457 0.0044,-0.0972 -0.140625,-0.24219 -0.184306,-0.18431 -0.318177,-0.17152 -0.421875,-0.17969 -0.103697,-0.008 -0.197794,-10e-4 -0.302734,0.01 -0.209879,0.0219 -0.459823,0.0684 -0.761719,0.13867 -0.603791,0.14056 -1.405785,0.37422 -2.339844,0.68164 -1.661702,0.54691 -2.648496,0.78115 -3.042968,0.75781 -0.197236,-0.0117 -0.201672,-0.0314 -0.238282,-0.0801 -0.03661,-0.0487 -0.09978,-0.21245 -0.134765,-0.5039 -0.02259,-0.18818 -0.01359,-0.23865 -0.0039,-0.25977 0.0097,-0.0211 0.06064,-0.0996 0.300781,-0.24219 0.480289,-0.28509 1.593157,-0.7291 3.699219,-1.53125 l 3.474609,-1.32421 0.103516,-1.60547 c 0.02362,-0.37023 0.02826,-0.74571 0.01758,-1.0625 -0.01068,-0.3168 6.81e-4,-0.51438 -0.105469,-0.79102 -0.07084,-0.18461 -0.254425,-0.32344 -0.396484,-0.37109 -0.142059,-0.0477 -0.258655,-0.0488 -0.38086,-0.043 -0.244409,0.0117 -0.519477,0.071 -0.898437,0.17187 -0.757921,0.20164 -1.911594,0.58459 -3.667969,1.20313 -3.632104,1.27909 -6.112613,2.12925 -7.777344,2.65625 -1.664731,0.527 -2.565835,0.7168 -2.802734,0.7168 -0.72469,0 -1.466791,-0.43855 -1.984375,-1.11914 -0.517584,-0.6806 -0.785519,-1.57338 -0.634766,-2.37696 0.09209,-0.49086 0.140925,-0.74571 0.328125,-0.99414 0.187201,-0.24842 0.577873,-0.55267 1.4375,-0.9707 1.719254,-0.83607 5.213595,-2.09454 12.21875,-4.61328 l 4.560547,-1.64063 0.136719,-11.59179 c 0.03635,-3.08976 0.09351,-5.9357 0.15625,-8.0293 0.03137,-1.0468 0.06373,-1.90616 0.0957,-2.50977 0.01599,-0.3018 0.03225,-0.54089 0.04687,-0.70117 0.0034,-0.0374 0.0066,-0.052 0.0098,-0.0801 0.07218,-0.081 0.184286,-0.13655 0.373046,-0.0996 0.210534,0.0412 0.405872,0.18444 0.47461,0.36524 -0.03346,-0.088 0.0073,0.048 0.02344,0.20898 0.01613,0.161 0.03343,0.38878 0.04883,0.67188 0.03079,0.56618 0.05739,1.35603 0.08008,2.32226 0.04537,1.93247 0.07227,4.57601 0.07227,7.59961 0,4.90298 0.0055,7.47147 0.07031,8.84961 0.0324,0.68907 0.06599,1.06901 0.169922,1.37891 0.05197,0.15495 0.137066,0.31863 0.296875,0.43555 0.159808,0.11691 0.344769,0.13671 0.447265,0.13671 0.171719,0 0.215025,-0.0255 0.332031,-0.0547 0.117007,-0.0292 0.260096,-0.07 0.433594,-0.1211 0.346996,-0.10219 0.809073,-0.2467 1.357422,-0.42578 1.096699,-0.35815 2.538724,-0.85072 4.064453,-1.39258 56.863873,-20.19496 64.031493,-22.71993 66.046883,-23.29687 0.70724,-0.20247 1.07548,-0.28791 1.37109,-0.28906 z m -0.88867,6.32421 0.0879,0.17383 c -0.31167,0.0958 -0.73301,0.23256 -1.31641,0.42774 -1.21002,0.40482 -3.05179,1.04001 -5.69922,1.96484 -5.29484,1.84966 -13.80649,4.858 -26.884762,9.49805 -6.839283,2.42651 -18.328173,6.49759 -25.53125,9.04687 -3.60236,1.27494 -6.929697,2.46239 -9.388672,3.34766 -1.229487,0.44263 -2.242515,0.8106 -2.964844,1.07617 -0.361164,0.13279 -0.649022,0.23914 -0.857421,0.31836 -0.1042,0.0396 -0.188884,0.0717 -0.253907,0.0977 -0.06502,0.026 -0.08872,0.0321 -0.164062,0.0723 -0.286474,0.15276 -0.515809,0.46252 -0.611328,0.8086 -0.09552,0.34607 -0.117188,0.74795 -0.117188,1.31054 0,0.41306 0.02495,0.80088 0.06641,1.11328 0.02073,0.1562 0.04481,0.2925 0.08008,0.41797 0.01763,0.0627 0.03636,0.12201 0.07031,0.19141 0.03395,0.0694 0.06703,0.16314 0.226563,0.26172 6.63e-4,4.1e-4 0.141837,0.0595 0.18164,0.0664 0.0398,0.007 0.06511,0.008 0.08594,0.008 0.04166,3.1e-4 0.06421,-10e-4 0.08398,-0.004 0.03954,-0.005 0.06517,-0.011 0.09375,-0.0176 0.05716,-0.0132 0.118809,-0.0319 0.197266,-0.0547 0.156913,-0.0456 0.374239,-0.11313 0.652343,-0.20312 0.556209,-0.17998 1.355194,-0.44748 2.367188,-0.79297 2.023988,-0.69098 4.894014,-1.69041 8.330078,-2.89844 6.872129,-2.41605 16.007332,-5.66823 25.144531,-8.96289 12.285344,-4.42981 21.341545,-7.65382 27.404295,-9.7539 3.03137,-1.05005 5.31576,-1.81964 6.875,-2.31641 0.77962,-0.24839 1.37831,-0.42903 1.79297,-0.54102 0.20733,-0.056 0.36986,-0.0943 0.47656,-0.11523 0.10671,-0.0209 0.21118,0.006 0.0547,-0.0254 -0.0301,-0.006 0.2081,0.0644 0.53711,0.18945 0.32901,0.12505 0.79651,0.31013 1.41406,0.56055 1.2351,0.50083 3.07241,1.26148 5.62695,2.33398 5.10909,2.14501 13.09253,5.53355 24.90625,10.56446 5.4126,2.30496 8.5325,3.55202 10.2793,4.30468 0.8734,0.37634 1.40658,0.63458 1.67188,0.80664 0.12909,0.0837 0.18365,0.14276 0.19726,0.16016 l 0.0156,38.04297 -58.95508,0.43359 H 48.941406 l -0.25,1.33203 c -0.05366,0.28607 -0.08182,0.58517 -0.08594,0.85547 -0.0041,0.2703 -0.0086,0.48369 0.08984,0.74024 0.06714,0.17496 0.181551,0.24736 0.25586,0.28906 0.07431,0.0417 0.132209,0.0597 0.191406,0.0762 0.118394,0.0329 0.242757,0.0513 0.410156,0.0703 0.334798,0.0379 0.833437,0.0673 1.597657,0.0937 1.52844,0.0529 4.108527,0.0901 8.390625,0.11329 8.564194,0.0463 23.932136,0.0394 51.23242,0.01 l 61.95508,-0.0664 0.0703,-21.67774 c 0.0266,-8.33795 0.0246,-13.65629 -0.0156,-16.93945 -0.0201,-1.64158 -0.0497,-2.77479 -0.0918,-3.5293 -0.021,-0.37725 -0.0444,-0.65768 -0.0742,-0.87305 -0.0298,-0.21536 0.007,-0.32409 -0.1875,-0.57812 -0.15773,-0.2062 -0.2156,-0.19499 -0.3418,-0.27148 -0.1262,-0.0765 -0.28619,-0.16578 -0.48242,-0.26954 -0.39247,-0.2075 -0.92711,-0.47402 -1.57227,-0.7832 -1.2903,-0.61835 -3.01903,-1.4072 -4.8789,-2.22266 -3.71023,-1.62674 -9.78196,-4.29708 -13.49219,-5.93359 -10.78668,-4.7578 -17.78774,-7.83486 -22.14258,-9.72266 -2.17742,-0.94389 -3.69246,-1.58948 -4.6914,-2.00195 -0.49948,-0.20623 -0.87049,-0.35451 -1.13477,-0.45312 -0.13214,-0.0493 -0.23599,-0.0858 -0.32422,-0.11328 -0.0882,-0.0275 -0.11543,-0.0567 -0.29297,-0.0567 z m 0.80859,1 c -0.13035,0 -0.0639,-0.006 -0.006,0.0117 0.058,0.0181 0.15137,0.0502 0.27344,0.0957 0.24414,0.0911 0.60764,0.23551 1.10156,0.43945 0.98785,0.40788 2.50078,1.05324 4.67578,1.99609 4.35001,1.8857 11.35062,4.96121 22.13672,9.71875 3.71134,1.637 9.78477,4.30833 13.4961,5.93555 1.8509,0.81153 3.57176,1.59754 4.84765,2.20898 0.63795,0.30573 1.16492,0.56885 1.53711,0.76563 0.1861,0.0984 0.33416,0.1792 0.43164,0.23828 0.0975,0.0591 0.17844,0.17186 0.0664,0.0254 -0.1289,-0.16853 -0.0329,-0.0593 -0.01,0.10742 0.0231,0.1667 0.0462,0.43051 0.0664,0.79297 0.0404,0.72493 0.0698,1.84934 0.0898,3.48438 0.04,3.27007 0.0423,8.58729 0.0156,16.92382 l -0.0664,20.68165 -60.95898,0.0664 c -27.300016,0.0297 -42.669266,0.0365 -51.226565,-0.01 -4.278649,-0.0231 -6.856194,-0.0593 -8.361328,-0.11133 -0.752567,-0.026 -1.239019,-0.0581 -1.519531,-0.0899 -0.02781,-0.003 -0.02699,-0.005 -0.05078,-0.008 -0.0073,-0.0676 -0.01116,-0.0688 -0.0098,-0.16015 0.0032,-0.20944 0.02668,-0.46338 0.06836,-0.68555 l 0.0957,-0.51563 h 58.677734 l 59.95117,-0.4414 -0.0156,-39.0625 c -7e-5,-0.18462 -0.0691,-0.40192 -0.18945,-0.56446 -0.1204,-0.16253 -0.27311,-0.28512 -0.46289,-0.4082 -0.37956,-0.24616 -0.93253,-0.50419 -1.82031,-0.88672 -1.77556,-0.76506 -4.88048,-2.00309 -10.28516,-4.30468 -11.81426,-5.03114 -19.79743,-8.41988 -24.91015,-10.56641 -2.55637,-1.07327 -4.39413,-1.83598 -5.63671,-2.33984 -0.6213,-0.25194 -1.09423,-0.43864 -1.43555,-0.56836 -0.34132,-0.12973 -0.50354,-0.19603 -0.69531,-0.23438 -0.23618,-0.0472 -0.2972,-0.005 -0.44336,0.0234 -0.14617,0.0286 -0.32437,0.0733 -0.54493,0.13281 -0.44111,0.11913 -1.05059,0.3019 -1.83789,0.55274 -1.5746,0.50166 -3.86107,1.27277 -6.89648,2.32421 -6.07082,2.10289 -15.130761,5.32733 -27.417974,9.75782 -9.134704,3.29376 -18.267943,6.54605 -25.136719,8.96093 -3.434388,1.20744 -6.301615,2.20536 -8.320313,2.89453 -1.009348,0.34459 -1.8072,0.61229 -2.353515,0.78907 -0.164363,0.0532 -0.257913,0.081 -0.375,0.11718 -0.03144,-0.25028 -0.05469,-0.58581 -0.05469,-0.94531 0,-0.52913 0.0344,-0.87233 0.08203,-1.04492 0.04764,-0.17259 0.05024,-0.15571 0.117188,-0.19141 -0.04351,0.0232 0.0086,-0.003 0.06445,-0.0254 0.05586,-0.0223 0.13719,-0.0534 0.238281,-0.0918 0.202183,-0.0769 0.4884,-0.18432 0.847657,-0.31641 0.718513,-0.26417 1.728787,-0.63008 2.957031,-1.07227 2.456488,-0.88437 5.781891,-2.07127 9.382812,-3.3457 7.203485,-2.54942 18.693529,-6.62022 25.533203,-9.04687 13.077809,-4.63989 21.589789,-7.64971 26.880859,-9.49805 2.64554,-0.92417 4.48611,-1.559 5.6875,-1.96094 0.6007,-0.20096 1.04186,-0.34251 1.33985,-0.43359 0.14899,-0.0455 0.26327,-0.0783 0.33789,-0.0977 0.0746,-0.0194 0.15637,-0.0176 0.041,-0.0176 z"
       id="path83" /></g><rect
     style="fill:#c6e9af;fill-opacity:0.725;fill-rule:evenodd;stroke:#020202;stroke-width:0.192488;stroke-opacity:0.982143"
     id="rect73-3"
     width="1.8921872"
     height="33.662457"
     x="70.170341"
     y="87.962952" /><rect
     style="fill:#c6e9af;fill-opacity:0.725;fill-rule:evenodd;stroke:#020202;stroke-width:0.201832;stroke-opacity:0.982143"
     id="rect73-6"
     width="1.8828423"
     height="37.193989"
     x="80.67041"
     y="84.498138" /><rect
     style="fill:#c6e9af;fill-opacity:0.725;fill-rule:evenodd;stroke:#020202;stroke-width:0.209854;stroke-opacity:0.982143"
     id="rect73-6-5"
     width="1.8748205"
     height="40.381351"
     x="90.503517"
     y="81.153786" /><rect
     style="fill:#c6e9af;fill-opacity:0.725;fill-rule:evenodd;stroke:#020202;stroke-width:0.218309;stroke-opacity:0.982143"
     id="rect73-6-5-5"
     width="1.8663653"
     height="43.898838"
     x="100.82182"
     y="77.568672" /><rect
     style="fill:#c6e9af;fill-opacity:0.725;fill-rule:evenodd;stroke:#020202;stroke-width:0.226148;stroke-opacity:0.982143"
     id="rect73-6-5-9"
     width="1.8585263"
     height="47.306759"
     x="110.4174"
     y="74.245522" /><g
     inkscape:groupmode="layer"
     id="layer2"
     inkscape:label="Layer 1"
     style="display:inline;fill:#000000;fill-opacity:0;stroke:#5d3232;stroke-opacity:1"
     inkscape:highlight-color="#64ee3b"
     transform="translate(0.13229129,-44.283402)"><text
       xml:space="preserve"
       style="font-style:normal;font-variant:normal;font-weight:normal;font-stretch:normal;font-size:29.4919px;font-family:'Bodoni 72 Smallcaps';-inkscape-font-specification:'Bodoni 72 Smallcaps, Normal';font-variant-ligatures:normal;font-variant-caps:normal;font-variant-numeric:normal;font-variant-east-asian:normal;text-align:start;writing-mode:lr-tb;direction:ltr;text-anchor:start;fill:#000000;fill-opacity:0.817857;stroke:#9bb48a;stroke-width:0.646;stroke-linecap:square;stroke-linejoin:bevel;stroke-miterlimit:1;stroke-dasharray:none;stroke-opacity:1;paint-order:stroke fill markers"
       x="28.780661"
       y="208.49437"
       id="text55"
       transform="scale(0.98544818,1.0147667)"><tspan
         sodipodi:role="line"
         id="tspan55"
         style="font-style:normal;font-variant:normal;font-weight:normal;font-stretch:normal;font-size:29.4919px;font-family:'Bodoni 72 Smallcaps';-inkscape-font-specification:'Bodoni 72 Smallcaps, Normal';font-variant-ligatures:normal;font-variant-caps:normal;font-variant-numeric:normal;font-variant-east-asian:normal;fill:#000000;fill-opacity:0.817857;stroke:#9bb48a;stroke-width:0.646;stroke-linecap:square;stroke-linejoin:bevel;stroke-miterlimit:1;stroke-dasharray:none;stroke-opacity:1;paint-order:stroke fill markers"
         x="28.780661"
         y="208.49437">Waendewerk</tspan></text></g><g
     inkscape:label="Ebene 1"
     inkscape:groupmode="layer"
     id="layer1"
     style="fill:#aade87;stroke:#5d3232;stroke-opacity:1"
     transform="translate(0.13229129,-44.283402)"><path
       d="m 120.60711,114.76612 v 50.83462 h 1.85105 v -50.83462 z"
       style="fill:#c6e9af;fill-opacity:0.725;fill-rule:evenodd;stroke:none;stroke-width:0.233938;stroke-opacity:0.982143"
       id="path76" /></g><g
     inkscape:groupmode="layer"
     id="g66"
     inkscape:label="Ebene 2"
     style="display:inline;fill:#838383;fill-opacity:0.725"
     transform="translate(0.13229129,-44.283402)"><path
       style="display:inline;fill:#9bb48a;fill-opacity:1;fill-rule:evenodd;stroke:#9bb48a;stroke-width:1.17458;stroke-dasharray:none;stroke-opacity:1;paint-order:stroke fill markers"
       d="m 122.23245,115.30842 42.32234,16.81185"
       id="path81"
       sodipodi:nodetypes="cc" /></g><rect
     style="fill:#c6e9af;fill-opacity:0.725;fill-rule:evenodd;stroke:#020202;stroke-width:0.182837;stroke-opacity:0.982143"
     id="rect73-4"
     width="1.9018384"
     height="30.217348"
     x="60.364162"
     y="91.521332" /><path
     style="fill:none;fill-opacity:0.725;fill-rule:evenodd;stroke:#9bb48a;stroke-width:1.25013;stroke-dasharray:none;stroke-opacity:1"
     d="m 122.53427,120.70284 41.71953,0.002 0.0226,-33.432752"
     id="path80"
     sodipodi:nodetypes="ccc" /></svg>
